#N canvas 1026 48 636 1131 12;
#X floatatom 4 461 5 0 0 0 - - -;
#X floatatom 44 461 5 0 0 0 - - -;
#X floatatom 85 462 5 0 0 0 - - -;
#X floatatom 126 462 5 0 0 0 - - -;
#X floatatom 167 463 5 0 0 0 - - -;
#X floatatom 249 463 5 0 0 0 - - -;
#X floatatom 290 463 5 0 0 0 - - -;
#X floatatom 331 490 5 0 0 0 - - -;
#X floatatom 398 490 5 0 0 0 - - -;
#X obj 331 464 unpack f f;
#X floatatom 730 713 5 0 0 0 - - -;
#X obj 729 643 counter;
#X obj 729 623 bng 15 250 50 0 empty empty empty 17 7 0 10 -262144
-1 -1;
#X obj 730 668 % 3;
#X obj 770 955 cart2pol;
#X obj 855 929 t b f;
#X obj 796 979 rad2deg;
#X floatatom 796 1003 5 0 0 0 - - -;
#X floatatom 770 1076 5 0 0 0 - - -;
#X obj 770 1052 clip;
#X floatatom 465 861 5 0 0 0 - - -;
#X obj 465 884 -;
#X obj 563 860 t b f;
#X floatatom 465 908 5 0 0 0 - - -;
#X obj 517 908 deg2rad;
#X obj 423 1039 pol2cart;
#X obj 517 932 t b f;
#X floatatom 895 980 5 0 0 0 - - -;
#X floatatom 855 979 5 0 0 0 - - -;
#X floatatom 465 931 5 0 0 0 - - -;
#X floatatom 532 762 5 0 0 0 - - -;
#X msg 855 955 30;
#X msg 895 955 1;
#X obj 465 786 metro 2000;
#X msg 563 836 180, f 4;
#X obj 563 812 loadbang;
#X floatatom 395 830 5 0 0 0 - - -;
#X obj 395 810 hradio 15 1 0 4 empty empty empty 0 -8 0 10 -262144
-1 -1 2;
#X obj 395 762 counter;
#X obj 465 836 counter 1 360;
#X obj 395 786 % 4;
#X obj 395 855 < 3;
#X obj 395 741 bng 15 250 50 0 empty empty empty 17 7 0 10 -262144
-1 -1;
#X floatatom 208 462 5 0 0 0 - - -;
#X obj 730 762 sel 0 1 2;
#X obj 395 1062 sel 0 1 2;
#X obj 395 715 spigot;
#X obj 465 811 spigot;
#X obj -116 825 metro 2000;
#X floatatom -39 847 5 0 0 0 - - -;
#X obj 97 825 metro 2000;
#X obj 97 688 bng 15 250 50 0 empty empty empty 17 7 0 10 -262144 -1
-1;
#X floatatom 144 970 5 0 0 0 - - -;
#X floatatom 174 847 5 0 0 0 - - -;
#X obj 27 849 loadbang;
#X msg 43 902 2;
#X obj 138 922 -;
#X obj 97 897 +;
#X floatatom 127 897 5 0 0 0 - - -;
#X obj -116 896 +;
#X floatatom -84 897 5 0 0 0 - - -;
#X obj -46 922 /;
#X obj -75 922 -;
#X obj 167 922 /;
#X obj -116 689 bng 15 250 50 0 empty empty empty 17 7 0 10 -262144
-1 -1;
#X msg 43 877 0;
#X obj -116 666 spigot;
#X text 392 667 Polar mode;
#X text -119 574 Cartesian mode;
#X floatatom 97 775 5 0 0 0 - - -;
#X obj 97 755 hradio 15 1 0 4 empty empty empty 0 -8 0 10 -262144 -1
-1 0;
#X obj 97 707 counter;
#X obj 97 731 % 4;
#X obj 97 801 < 3;
#X floatatom -116 776 5 0 0 0 - - -;
#X obj -116 756 hradio 15 1 0 4 empty empty empty 0 -8 0 10 -262144
-1 -1 0;
#X obj -116 708 counter;
#X obj -116 732 % 4;
#X obj -116 801 < 3;
#X obj -116 849 spigot;
#X obj 97 849 spigot;
#X floatatom 4 181 5 0 0 0 - - -;
#X floatatom 98 180 5 0 0 0 - - -;
#X text 163 483 Status;
#X text 210 482 Mod 1;
#X text 250 485 Mod 2;
#X obj 4 206 expr $i1 +1 \;;
#X obj 98 206 expr $i1 +1 \;;
#X obj 97 232 i;
#X obj 4 235 i;
#X obj 63 172 bng 15 250 50 0 empty empty empty 17 7 0 10 -262144 -1
-1;
#X obj 15 379 r unpacked_osc;
#X msg 1078 765 send /1/label/1/1 pol;
#X msg 1078 690 send /1/label/1/1 cart;
#X msg 1078 916 send /1/label/1/1 |;
#X msg 1078 841 send /1/label/1/1 rec;
#X obj -72 1134 sel 0 1 2;
#X msg 1322 913 send /1/label/1/2 manual;
#X msg 1322 839 send /1/label/1/2 <<|>>;
#X obj 97 665 spigot;
#X msg 1322 987 send /1/label/1/2 |;
#X msg 1570 840 send /1/label/1/3 <<|>>;
#X text 990 568 Displaymessages;
#X text 0 135 Inputrouting / OSC-Routing;
#X obj 730 693 hradio 15 1 0 4 empty empty empty 0 -8 0 10 -262144
-1 -1 1;
#X obj 537 300 bng 15 250 50 0 empty empty empty 17 7 0 10 -262144
-1 -1;
#X msg 483 407 send /1/xy/1/1 -14.3403 14.1772;
#X msg 483 381 set send /\$1/xy/\$2/1 \$3 \$4;
#X msg 736 395 send /track/1/azim -61.811;
#X msg 736 461 send /track/1/dist 17.1306;
#X msg 736 373 set send /track/\$1/azim \$2;
#X msg 736 439 set send /track/\$1/dist \$3;
#X msg 1078 665 set send /\$1/label/\$2/1 cart;
#X msg 1078 739 set send /\$1/label/\$2/1 pol;
#X msg 1078 815 set send /\$1/label/\$2/1 rec;
#X msg 1322 813 set send /\$1/label/\$2/2 <<|>>;
#X msg 1322 887 set send /\$1/label/\$2/2 manual;
#X msg 1570 915 send /1/label/1/3 manual;
#X msg 1570 989 send /1/label/1/3 |;
#X msg 1570 814 set send /\$1/label/\$2/3 <<|>>;
#X msg 1570 889 set send /\$1/label/\$2/3 manual;
#X msg 1820 840 send /1/label/1/4 <<|>>;
#X msg 1820 915 send /1/label/1/4 manual;
#X msg 1820 989 send /1/label/1/4 |;
#X msg 1820 814 set send /\$1/label/\$2/4 <<|>>;
#X msg 1820 889 set send /\$1/label/\$2/4 manual;
#X msg 2070 840 send /1/label/1/5 <<|>>;
#X msg 2070 915 send /1/label/1/5 manual;
#X msg 2070 989 send /1/label/1/5 |;
#X msg 2070 814 set send /\$1/label/\$2/5 <<|>>;
#X msg 2070 889 set send /\$1/label/\$2/5 manual;
#X obj -116 617 expr if ($i1 == 1 \, 1 \, 0) \;;
#X obj 465 715 expr if ($i1 == 0 \, 1 \, 0) \;;
#X obj -72 1060 sel 0 1 2;
#X msg 2070 964 set send /\$1/label/\$2/5 |;
#X msg 1820 964 set send /\$1/label/\$2/4 |;
#X msg 1570 965 set send /\$1/label/\$2/3 |;
#X msg 1322 962 set send /\$1/label/\$2/2 |;
#X msg 1078 890 set send /\$1/label/\$2/1 |;
#X msg 4 320 set /\$1/fader/\$2/1 /\$1/fader/\$2/2 /\$1/fader/\$2/3
/\$1/fader/\$2/4 /\$1/button/\$2/1 /\$1/button/\$2/2 /\$1/button/\$2/3
/\$1/button/\$2/4 /\$1/xy/\$2/1 /\$1/toggle/\$2/1;
#X obj 4 407 routeOSC /\$1/fader/\$2/1 /\$1/fader/\$2/2 /\$1/fader/\$2/3
/\$1/fader/\$2/4 /\$1/button/\$2/1 /\$1/button/\$2/2 /\$1/button/\$2/3
/\$1/button/\$2/4 /\$1/xy/\$2/1 /\$1/toggle/\$2/1;
#X obj 736 351 spigot;
#X obj 736 417 spigot;
#X floatatom 253 289 5 0 0 0 - - -;
#X obj 225 236 r pmx_unpacked_osc;
#X obj 213 264 routeOSC /track/\$1/levels/input;
#X msg 213 206 set /track/\$1/levels/input;
#X obj 801 265 bng 15 250 50 0 empty empty empty 17 7 0 10 -262144
-1 -1;
#X text 767 885 Cart2Pol;
#X obj -116 873 counter 1 30;
#X obj 97 873 counter 1 30;
#X obj 423 989 * 0.5;
#X obj 483 433 s t-osc;
#X obj 726 486 s pmx;
#X obj 191 28 hradio 15 1 1 4 \$0-banks \$0-bankr controlbank 0 -8
0 10 -262144 -1 -1 0;
#X obj 191 66 hradio 15 1 1 4 \$0-units \$0-unitr controlunit 0 -8
0 10 -262144 -1 -1 0;
#X obj 994 1007 s t-osc;
#X floatatom 719 242 5 0 0 0 - - -;
#X obj 69 288 s \$0-id_bank;
#X obj 161 289 s \$0-id_chan;
#X obj 296 288 s \$0-level;
#X obj 501 203 r \$0-id_bank;
#X obj 528 226 r \$0-id_chan;
#X obj 555 249 r \$0-cart_y;
#X obj 582 272 r \$0-cart_x;
#X obj 754 196 r \$0-id_pmx;
#X obj 787 219 r \$0-pol_azim;
#X obj 821 242 r \$0-pol_dist;
#X obj -116 593 r \$0-globMode;
#X obj 4 486 s \$0-fader1;
#X obj 44 512 s \$0-fader2;
#X obj 85 487 s \$0-fader3;
#X obj 126 536 s \$0-fader4;
#X obj 167 510 s \$0-button1;
#X obj 208 536 s \$0-button2;
#X obj 249 510 s \$0-button3;
#X obj 290 538 s \$0-button4;
#X obj 373 538 s \$0-toggle1;
#X obj 331 515 s \$0-pad-x;
#X obj 398 516 s \$0-pad-y;
#X obj -116 641 r \$0-button2;
#X obj 97 642 r \$0-button3;
#X obj -63 802 r \$0-fader1;
#X obj -39 825 r \$0-fader2;
#X obj 151 801 r \$0-fader3;
#X obj 174 825 r \$0-fader4;
#X obj -295 1083 s \$0-msg_2_r;
#X obj -295 1105 s \$0-msg_4_r;
#X obj -295 1158 s \$0-msg_3_r;
#X obj -295 1180 s \$0-msg_5_r;
#X obj -196 1083 s \$0-msg_2_l;
#X obj -196 1105 s \$0-msg_4_l;
#X obj -196 1158 s \$0-msg_3_l;
#X obj -196 1180 s \$0-msg_5_l;
#X obj -97 1083 s \$0-msg_2_rl;
#X obj -97 1105 s \$0-msg_4_rl;
#X obj -97 1158 s \$0-msg_3_rl;
#X obj -97 1180 s \$0-msg_5_rl;
#X obj 9 1158 s \$0-msg_3_empty;
#X obj 9 1181 s \$0-msg_5_empty;
#X obj 9 1083 s \$0-msg_2_empty;
#X obj 9 1106 s \$0-msg_4_empty;
#X obj 264 1103 s \$0-msg_2_l;
#X obj 264 1128 s \$0-msg_3_l;
#X obj 264 1153 s \$0-msg_4_r;
#X obj 264 1178 s \$0-msg_5_r;
#X obj 365 1103 s \$0-msg_2_r;
#X obj 364 1128 s \$0-msg_3_r;
#X obj 365 1153 s \$0-msg_4_l;
#X obj 365 1178 s \$0-msg_5_l;
#X obj 466 1103 s \$0-msg_2_empty;
#X obj 466 1128 s \$0-msg_3_rl;
#X obj 466 1153 s \$0-msg_4_empty;
#X obj 466 1178 s \$0-msg_5_empty;
#X obj 594 1103 s \$0-msg_2_empty;
#X obj 594 1128 s \$0-msg_3_man;
#X obj 592 1154 s \$0-msg_4_empty;
#X obj 594 1178 s \$0-msg_5_empty;
#X obj 486 1039 s \$0-cart_x;
#X obj 569 1039 s \$0-cart_y;
#X obj 563 932 r \$0-fader2;
#X obj 529 883 s \$0-pol_azim;
#X obj 532 737 r \$0-fader1;
#X obj 395 689 r \$0-button2;
#X obj 485 690 r \$0-globMode;
#X obj 465 1015 s \$0-pol_dist;
#X obj 729 598 r \$0-button1;
#X obj 741 737 s \$0-globMode;
#X obj 796 1027 s \$0-pol_azim;
#X obj 770 1099 s \$0-pol_dist;
#X obj 993 590 r \$0-id_bank;
#X obj 1084 590 r \$0-id_chan;
#X obj 1057 641 r \$0-msg_1_cart;
#X obj 1057 715 r \$0-msg_1_pol;
#X obj 1057 790 r \$0-msg_1_rec;
#X obj 1057 864 r \$0-msg_1_empty;
#X obj 1301 641 r \$0-msg_2_r;
#X obj 1301 714 r \$0-msg_2_l;
#X obj 1301 789 r \$0-msg_2_rl;
#X obj 1301 863 r \$0-msg_2_man;
#X obj 1301 937 r \$0-msg_2_empty;
#X obj 1549 641 r \$0-msg_3_r;
#X obj 1549 715 r \$0-msg_3_l;
#X obj 1549 790 r \$0-msg_3_rl;
#X obj 1550 865 r \$0-msg_3_man;
#X obj 1549 939 r \$0-msg_3_empty;
#X obj 1799 641 r \$0-msg_4_r;
#X obj 1799 715 r \$0-msg_4_l;
#X obj 1799 790 r \$0-msg_4_rl;
#X obj 1797 865 r \$0-msg_4_man;
#X obj 1799 939 r \$0-msg_4_empty;
#X obj 2049 641 r \$0-msg_5_r;
#X obj 2049 715 r \$0-msg_5_l;
#X obj 2049 790 r \$0-msg_5_rl;
#X obj 2049 865 r \$0-msg_5_man;
#X obj 2049 939 r \$0-msg_5_empty;
#X obj 800 628 s \$0-msg_2_empty;
#X obj 800 653 s \$0-msg_3_empty;
#X obj 800 678 s \$0-msg_4_empty;
#X obj 800 703 s \$0-msg_5_empty;
#X obj 730 786 s \$0-msg_1_pol;
#X obj 749 810 s \$0-msg_1_cart;
#X obj 770 833 s \$0-msg_1_rec;
#X obj 793 351 r \$0-toggle1;
#X obj 223 181 s \$0-id_pmx;
#X obj 855 905 r \$0-pad-y;
#X obj 770 905 r \$0-pad-x;
#X obj 1017 238 r \$0-id_bank;
#X obj 1050 261 r \$0-id_chan;
#X obj 1084 285 r \$0-level;
#X msg 1032 480 send /1/led/1/1 0;
#X msg 1031 454 set send /\$1/led/\$2/1 \$3;
#X obj 1032 507 s t-osc;
#X obj 993 341 bng 15 250 50 0 empty empty empty 17 7 0 10 -262144
-1 -1;
#X obj 1050 336 t b f;
#X obj 1017 361 t b f;
#X obj 1084 312 t b f;
#X obj 1098 401 f;
#X text 483 179 Send to TouchOSC;
#X text 721 176 Send to Panoramix;
#X text 728 574 pol / cart / rec;
#X obj 121 1020 s \$0-cart_y;
#X obj 1116 347 expr if ($f1 > -100 \, (($f1 +8) * -0.1) \, 0) \;;
#X obj -65 994 s \$0-pad-y;
#X obj -75 1019 s \$0-cart_x;
#X obj 118 994 s \$0-pad-x;
#X msg 1322 665 set send /\$1/label/\$2/2 >>>;
#X msg 1322 690 send /1/label/1/2 >>>;
#X msg 1322 738 set send /\$1/label/\$2/2 <<<;
#X msg 1322 764 send /1/label/1/2 <<<;
#X msg 1570 665 set send /\$1/label/\$2/3 >>>;
#X msg 1570 691 send /1/label/1/3 >>>;
#X msg 1570 740 set send /\$1/label/\$2/3 <<<;
#X msg 1570 766 send /1/label/1/3 <<<;
#X msg 1820 665 set send /\$1/label/\$2/4 >>>;
#X msg 1820 691 send /1/label/1/4 >>>;
#X msg 1820 740 set send /\$1/label/\$2/4 <<<;
#X msg 1820 766 send /1/label/1/4 <<<;
#X msg 2070 665 set send /\$1/label/\$2/5 >>>;
#X msg 2070 691 send /1/label/1/5 >>>;
#X msg 2070 741 set send /\$1/label/\$2/5 <<<;
#X msg 2070 766 send /1/label/1/5 <<<;
#X obj -75 946 f;
#X floatatom -65 971 5 0 0 0 - - -;
#X obj 138 946 f;
#X obj 803 300 f;
#X obj 769 300 f;
#X obj 483 330 f;
#X obj 510 330 f;
#X obj 537 329 f;
#X obj 564 330 f;
#X obj 483 356 pack f f f f;
#X obj 736 300 f;
#X obj 736 326 pack f f f;
#X obj 1030 401 f;
#X obj 1064 401 f;
#X obj 1031 428 pack f f f;
#X obj 4 262 t f f;
#X obj 4 288 pack f f;
#X obj 993 615 t f f;
#X obj 993 641 pack f f;
#X obj 55 51 nbx 5 14 1 40 0 1 \$0-pmxs \$0-pmxr panoramix 0 -8 0 10
-262144 -1 -1 1 256;
#N canvas 1538 48 380 1131 numbercruncher 0;
#X obj 87 10 inlet;
#X obj 101 350 outlet;
#X text 227 82 Sends creation argument list to the GOP;
#X text 292 211 Receives GOP values and sends them on again to the
saver;
#X obj 43 140 s \$0-bankr;
#X obj 43 197 r \$0-banks;
#X obj 149 196 r \$0-units;
#X obj 150 139 s \$0-unitr;
#X obj 241 138 s \$0-pmxr;
#X obj 43 226 t b f;
#X obj 149 227 t b f;
#X obj 245 225 t b f;
#X obj 101 312 pack f f f;
#X obj 87 44 unpack f f f;
#X floatatom 45 288 5 0 0 0 - - -;
#X floatatom 124 266 5 0 0 0 - - -;
#X floatatom 251 270 5 0 0 0 - - -;
#X obj 245 196 r \$0-pmxs;
#X connect 0 0 13 0;
#X connect 5 0 9 0;
#X connect 6 0 10 0;
#X connect 9 1 12 0;
#X connect 9 1 14 0;
#X connect 10 1 12 1;
#X connect 10 1 15 0;
#X connect 11 1 12 2;
#X connect 11 1 16 0;
#X connect 12 0 1 0;
#X connect 13 0 4 0;
#X connect 13 1 7 0;
#X connect 13 2 8 0;
#X connect 17 0 11 0;
#X restore 404 5 pd numbercruncher;
#X obj 404 76 iemguts/canvasargs;
#X obj 404 -74 iemguts/canvasargs;
#X obj 357 -142 loadbang;
#X obj 404 -26 list trim;
#X obj 404 -49 list;
#X obj 357 -98 t b b;
#X msg 357 -75 1;
#X obj 404 31 spigot;
#X obj 213 155 f;
#X msg 171 581 100;
#X obj 291 583 bng 15 250 50 0 empty empty empty 17 7 0 10 -262144
-1 -1;
#X obj 252 641 loadbang;
#X msg 90 573 30;
#X msg 227 581 0;
#X msg 369 574 30;
#X obj 832 270 loadbang;
#X msg 866 326 0;
#X msg 832 300 1;
#X obj 866 300 delay 150 1 msec;
#X text 983 214 audioactivity led;
#X connect 0 0 169 0;
#X connect 1 0 170 0;
#X connect 2 0 171 0;
#X connect 3 0 172 0;
#X connect 4 0 173 0;
#X connect 5 0 175 0;
#X connect 6 0 176 0;
#X connect 7 0 178 0;
#X connect 8 0 179 0;
#X connect 9 0 7 0;
#X connect 9 1 8 0;
#X connect 10 0 44 0;
#X connect 10 0 227 0;
#X connect 11 0 13 0;
#X connect 12 0 11 0;
#X connect 12 0 256 0;
#X connect 12 0 257 0;
#X connect 12 0 258 0;
#X connect 12 0 259 0;
#X connect 13 0 104 0;
#X connect 14 0 19 0;
#X connect 14 1 16 0;
#X connect 15 0 14 0;
#X connect 15 0 31 0;
#X connect 15 0 32 0;
#X connect 15 1 14 1;
#X connect 16 0 17 0;
#X connect 17 0 228 0;
#X connect 18 0 229 0;
#X connect 19 0 18 0;
#X connect 20 0 21 0;
#X connect 21 0 23 0;
#X connect 22 0 20 0;
#X connect 22 1 21 1;
#X connect 23 0 24 0;
#X connect 23 0 221 0;
#X connect 24 0 26 0;
#X connect 25 0 219 0;
#X connect 25 1 218 0;
#X connect 26 0 25 0;
#X connect 26 1 25 1;
#X connect 27 0 19 1;
#X connect 28 0 19 2;
#X connect 29 0 151 0;
#X connect 30 0 33 1;
#X connect 31 0 28 0;
#X connect 32 0 27 0;
#X connect 33 0 47 0;
#X connect 34 0 22 0;
#X connect 35 0 34 0;
#X connect 36 0 39 1;
#X connect 36 0 41 0;
#X connect 36 0 45 0;
#X connect 37 0 36 0;
#X connect 38 0 40 0;
#X connect 39 0 20 0;
#X connect 40 0 37 0;
#X connect 41 0 33 0;
#X connect 42 0 38 0;
#X connect 43 0 174 0;
#X connect 44 0 260 0;
#X connect 44 1 261 0;
#X connect 44 2 262 0;
#X connect 45 0 202 0;
#X connect 45 0 203 0;
#X connect 45 0 204 0;
#X connect 45 0 205 0;
#X connect 45 1 206 0;
#X connect 45 1 207 0;
#X connect 45 1 208 0;
#X connect 45 1 209 0;
#X connect 45 2 210 0;
#X connect 45 2 211 0;
#X connect 45 2 212 0;
#X connect 45 2 213 0;
#X connect 45 3 214 0;
#X connect 45 3 215 0;
#X connect 45 3 216 0;
#X connect 45 3 217 0;
#X connect 46 0 42 0;
#X connect 47 0 39 0;
#X connect 48 0 79 0;
#X connect 49 0 61 0;
#X connect 49 0 149 4;
#X connect 50 0 80 0;
#X connect 51 0 65 0;
#X connect 51 0 71 0;
#X connect 53 0 63 0;
#X connect 53 0 150 4;
#X connect 54 0 55 0;
#X connect 55 0 61 1;
#X connect 55 0 63 1;
#X connect 56 0 304 0;
#X connect 57 0 56 0;
#X connect 58 0 57 1;
#X connect 59 0 62 0;
#X connect 60 0 59 1;
#X connect 61 0 62 1;
#X connect 62 0 302 0;
#X connect 63 0 56 1;
#X connect 64 0 65 0;
#X connect 64 0 76 0;
#X connect 65 0 58 0;
#X connect 65 0 60 0;
#X connect 66 0 64 0;
#X connect 69 0 73 0;
#X connect 69 0 133 0;
#X connect 69 0 150 1;
#X connect 70 0 69 0;
#X connect 71 0 72 0;
#X connect 72 0 70 0;
#X connect 73 0 50 0;
#X connect 74 0 78 0;
#X connect 74 0 96 0;
#X connect 74 0 149 1;
#X connect 75 0 74 0;
#X connect 76 0 77 0;
#X connect 77 0 75 0;
#X connect 78 0 48 0;
#X connect 79 0 149 0;
#X connect 80 0 150 0;
#X connect 81 0 86 0;
#X connect 82 0 87 0;
#X connect 86 0 89 1;
#X connect 87 0 88 1;
#X connect 88 0 159 0;
#X connect 88 0 317 0;
#X connect 89 0 158 0;
#X connect 89 0 317 0;
#X connect 90 0 88 0;
#X connect 90 0 89 0;
#X connect 91 0 140 0;
#X connect 92 0 156 0;
#X connect 93 0 156 0;
#X connect 94 0 156 0;
#X connect 95 0 156 0;
#X connect 96 0 188 0;
#X connect 96 0 189 0;
#X connect 96 1 192 0;
#X connect 96 1 193 0;
#X connect 96 2 196 0;
#X connect 96 2 197 0;
#X connect 96 3 198 0;
#X connect 96 3 199 0;
#X connect 97 0 156 0;
#X connect 98 0 156 0;
#X connect 99 0 51 0;
#X connect 100 0 156 0;
#X connect 101 0 156 0;
#X connect 104 0 10 0;
#X connect 105 0 106 0;
#X connect 105 0 307 0;
#X connect 105 0 308 0;
#X connect 105 0 309 0;
#X connect 105 0 310 0;
#X connect 106 0 152 0;
#X connect 107 0 106 0;
#X connect 108 0 153 0;
#X connect 109 0 153 0;
#X connect 110 0 108 0;
#X connect 111 0 109 0;
#X connect 112 0 93 0;
#X connect 113 0 92 0;
#X connect 114 0 95 0;
#X connect 115 0 98 0;
#X connect 116 0 97 0;
#X connect 117 0 156 0;
#X connect 118 0 156 0;
#X connect 119 0 101 0;
#X connect 120 0 117 0;
#X connect 121 0 156 0;
#X connect 122 0 156 0;
#X connect 123 0 156 0;
#X connect 124 0 121 0;
#X connect 125 0 122 0;
#X connect 126 0 156 0;
#X connect 127 0 156 0;
#X connect 128 0 156 0;
#X connect 129 0 126 0;
#X connect 130 0 127 0;
#X connect 131 0 66 1;
#X connect 131 0 79 1;
#X connect 131 0 80 1;
#X connect 131 0 99 1;
#X connect 132 0 46 1;
#X connect 132 0 47 1;
#X connect 133 0 186 0;
#X connect 133 0 187 0;
#X connect 133 1 190 0;
#X connect 133 1 191 0;
#X connect 133 2 194 0;
#X connect 133 2 195 0;
#X connect 133 3 200 0;
#X connect 133 3 201 0;
#X connect 134 0 128 0;
#X connect 135 0 123 0;
#X connect 136 0 118 0;
#X connect 137 0 100 0;
#X connect 138 0 94 0;
#X connect 139 0 140 0;
#X connect 140 0 0 0;
#X connect 140 1 1 0;
#X connect 140 2 2 0;
#X connect 140 3 3 0;
#X connect 140 4 4 0;
#X connect 140 5 43 0;
#X connect 140 6 5 0;
#X connect 140 7 6 0;
#X connect 140 8 9 0;
#X connect 140 9 177 0;
#X connect 141 0 110 0;
#X connect 142 0 111 0;
#X connect 143 0 160 0;
#X connect 144 0 145 0;
#X connect 145 0 143 0;
#X connect 146 0 145 0;
#X connect 147 0 108 0;
#X connect 147 0 109 0;
#X connect 147 0 305 0;
#X connect 147 0 306 0;
#X connect 147 0 312 0;
#X connect 149 0 59 0;
#X connect 150 0 57 0;
#X connect 151 0 25 0;
#X connect 151 0 225 0;
#X connect 154 0 81 0;
#X connect 154 0 90 0;
#X connect 155 0 82 0;
#X connect 155 0 90 0;
#X connect 161 0 105 0;
#X connect 161 0 307 1;
#X connect 162 0 105 0;
#X connect 162 0 308 1;
#X connect 163 0 105 0;
#X connect 163 0 309 1;
#X connect 164 0 105 0;
#X connect 164 0 310 1;
#X connect 165 0 147 0;
#X connect 165 0 157 0;
#X connect 165 0 312 1;
#X connect 166 0 147 0;
#X connect 166 0 306 1;
#X connect 167 0 147 0;
#X connect 167 0 305 1;
#X connect 168 0 131 0;
#X connect 180 0 66 0;
#X connect 181 0 99 0;
#X connect 182 0 48 1;
#X connect 183 0 49 0;
#X connect 184 0 50 1;
#X connect 185 0 53 0;
#X connect 220 0 29 0;
#X connect 222 0 30 0;
#X connect 223 0 46 0;
#X connect 224 0 132 0;
#X connect 226 0 12 0;
#X connect 230 0 319 0;
#X connect 231 0 319 0;
#X connect 232 0 93 0;
#X connect 233 0 92 0;
#X connect 234 0 95 0;
#X connect 235 0 94 0;
#X connect 236 0 287 0;
#X connect 237 0 289 0;
#X connect 238 0 98 0;
#X connect 239 0 97 0;
#X connect 240 0 100 0;
#X connect 241 0 291 0;
#X connect 242 0 293 0;
#X connect 243 0 101 0;
#X connect 244 0 117 0;
#X connect 245 0 118 0;
#X connect 246 0 295 0;
#X connect 247 0 297 0;
#X connect 248 0 121 0;
#X connect 249 0 122 0;
#X connect 250 0 123 0;
#X connect 251 0 299 0;
#X connect 252 0 301 0;
#X connect 253 0 126 0;
#X connect 254 0 127 0;
#X connect 255 0 128 0;
#X connect 263 0 141 1;
#X connect 263 0 142 1;
#X connect 265 0 15 0;
#X connect 266 0 14 0;
#X connect 267 0 273 0;
#X connect 267 0 275 0;
#X connect 268 0 273 0;
#X connect 268 0 274 0;
#X connect 269 0 273 0;
#X connect 269 0 276 0;
#X connect 270 0 272 0;
#X connect 271 0 270 0;
#X connect 273 0 270 0;
#X connect 273 0 277 0;
#X connect 273 0 314 0;
#X connect 273 0 315 0;
#X connect 274 1 315 1;
#X connect 275 1 314 1;
#X connect 276 1 282 0;
#X connect 277 0 316 2;
#X connect 282 0 277 1;
#X connect 286 0 287 0;
#X connect 287 0 156 0;
#X connect 288 0 289 0;
#X connect 289 0 156 0;
#X connect 290 0 291 0;
#X connect 291 0 156 0;
#X connect 292 0 293 0;
#X connect 293 0 156 0;
#X connect 294 0 295 0;
#X connect 295 0 156 0;
#X connect 296 0 297 0;
#X connect 297 0 156 0;
#X connect 298 0 299 0;
#X connect 299 0 156 0;
#X connect 300 0 301 0;
#X connect 301 0 156 0;
#X connect 302 0 303 0;
#X connect 302 0 283 0;
#X connect 302 0 284 0;
#X connect 304 0 285 0;
#X connect 304 0 281 0;
#X connect 304 0 52 0;
#X connect 305 0 313 2;
#X connect 306 0 313 1;
#X connect 307 0 311 0;
#X connect 308 0 311 1;
#X connect 309 0 311 2;
#X connect 310 0 311 3;
#X connect 311 0 107 0;
#X connect 312 0 313 0;
#X connect 313 0 141 0;
#X connect 313 0 142 0;
#X connect 314 0 316 0;
#X connect 315 0 316 1;
#X connect 316 0 271 0;
#X connect 317 0 318 1;
#X connect 317 1 318 0;
#X connect 318 0 139 0;
#X connect 319 0 320 1;
#X connect 319 1 320 0;
#X connect 320 0 113 0;
#X connect 320 0 114 0;
#X connect 320 0 138 0;
#X connect 320 0 286 0;
#X connect 320 0 288 0;
#X connect 320 0 115 0;
#X connect 320 0 116 0;
#X connect 320 0 119 0;
#X connect 320 0 137 0;
#X connect 320 0 290 0;
#X connect 320 0 292 0;
#X connect 320 0 112 0;
#X connect 320 0 120 0;
#X connect 320 0 136 0;
#X connect 320 0 294 0;
#X connect 320 0 296 0;
#X connect 320 0 124 0;
#X connect 320 0 125 0;
#X connect 320 0 135 0;
#X connect 320 0 298 0;
#X connect 320 0 300 0;
#X connect 320 0 129 0;
#X connect 320 0 130 0;
#X connect 320 0 134 0;
#X connect 321 0 331 1;
#X connect 321 0 331 0;
#X connect 322 0 330 0;
#X connect 324 0 327 0;
#X connect 325 0 328 0;
#X connect 326 0 322 0;
#X connect 327 0 326 0;
#X connect 328 0 329 0;
#X connect 328 1 324 0;
#X connect 329 0 330 1;
#X connect 330 0 323 0;
#X connect 331 0 264 0;
#X connect 331 0 146 0;
#X connect 332 0 4 0;
#X connect 332 0 43 0;
#X connect 332 0 5 0;
#X connect 332 0 6 0;
#X connect 333 0 336 0;
#X connect 334 0 335 0;
#X connect 334 0 332 0;
#X connect 334 0 333 0;
#X connect 334 0 337 0;
#X connect 335 0 0 0;
#X connect 335 0 1 0;
#X connect 335 0 2 0;
#X connect 335 0 3 0;
#X connect 336 0 43 0;
#X connect 336 0 5 0;
#X connect 336 0 6 0;
#X connect 337 0 7 0;
#X connect 337 0 8 0;
#X connect 338 0 340 0;
#X connect 338 0 341 0;
#X connect 339 0 141 1;
#X connect 339 0 142 1;
#X connect 340 0 141 1;
#X connect 340 0 142 1;
#X connect 341 0 339 0;
#X coords 0 -1 1 1 300 100 1 0 0;
